g trash can
v 0.5 22.501 0.499
v 0.5 0.499 0.499
v 0.5 0.499 16.501
v 0.5 22.501 16.501
v 0.499 22.501 16.5
v 0.499 0.499 16.5
v 16.501 0.499 16.5
v 16.501 22.501 16.5
v 16.5 22.501 16.501
v 16.5 0.499 16.501
v 16.5 0.499 0.499
v 16.5 22.501 0.499
v 16.501 22.501 0.5
v 16.501 0.499 0.5
v 0.499 0.499 0.5
v 0.499 22.501 0.5
v -0.501 22.5 17.501
v -0.501 22.5 0.499
v 0.501 22.5 0.499
v 0.501 22.5 17.501
v -0.501 25.5 1.499
v -0.501 25.5 17.501
v 1.501 25.5 17.501
v 1.501 25.5 1.499
v 16.499 22.5 16.501
v 16.499 22.5 0.499
v 17.501 22.5 0.499
v 17.501 22.5 16.501
v 0.499 0.5 16.501
v 0.499 0.5 1.499
v 1.501 0.5 1.499
v 1.501 0.5 16.501
v 15.499 0.5 15.501
v 15.499 0.5 1.499
v 16.501 0.5 1.499
v 16.501 0.5 15.501
v 15.499 25.5 1.499
v 15.499 25.5 15.501
v 17.501 25.5 15.501
v 17.501 25.5 1.499
v 1.499 -0.5 15.501
v 1.499 -0.5 1.499
v 15.501 -0.5 1.499
v 15.501 -0.5 15.501
v 1.499 26.5 3.499
v 1.499 26.5 15.501
v 3.501 26.5 15.501
v 3.501 26.5 3.499
v 13.499 26.5 3.499
v 13.499 26.5 13.501
v 15.501 26.5 13.501
v 15.501 26.5 3.499
v 3.499 27.5 7.499
v 3.499 27.5 13.501
v 4.501 27.5 13.501
v 4.501 27.5 7.499
v 4.499 27.5 9.499
v 4.499 27.5 13.501
v 13.501 27.5 13.501
v 13.501 27.5 9.499
v 3.499 27.5 3.499
v 3.499 27.5 7.501
v 13.501 27.5 7.501
v 13.501 27.5 3.499
v 17.5 25.501 17.501
v 17.5 22.499 17.501
v 17.5 22.499 -0.501
v 17.5 25.501 -0.501
v -0.501 25.501 17.5
v -0.501 22.499 17.5
v 17.501 22.499 17.5
v 17.501 25.501 17.5
v 17.501 25.501 -0.5
v 17.501 22.499 -0.5
v -0.501 22.499 -0.5
v -0.501 25.501 -0.5
v -0.5 25.501 -0.501
v -0.5 22.499 -0.501
v -0.5 22.499 17.501
v -0.5 25.501 17.501
v 4.499 28.5 7.499
v 4.499 28.5 9.501
v 5.501 28.5 9.501
v 5.501 28.5 7.499
v 1.499 26.5 1.499
v 1.499 26.5 3.501
v 15.501 26.5 3.501
v 15.501 26.5 1.499
v 1.499 25.5 15.499
v 1.499 25.5 17.501
v 17.501 25.5 17.501
v 17.501 25.5 15.499
v 5.499 29.5 7.499
v 5.499 29.5 9.501
v 11.501 29.5 9.501
v 11.501 29.5 7.499
v -0.501 25.5 -0.501
v -0.501 25.5 1.501
v 17.501 25.5 1.501
v 17.501 25.5 -0.501
v 6.499 27.5 7.499
v 6.499 27.5 9.501
v 10.501 27.5 9.501
v 10.501 27.5 7.499
v 11.499 28.5 7.499
v 11.499 28.5 9.501
v 12.501 28.5 9.501
v 12.501 28.5 7.499
v 12.499 27.5 7.499
v 12.499 27.5 9.501
v 13.501 27.5 9.501
v 13.501 27.5 7.499
v 3.499 26.5 13.499
v 3.499 26.5 15.501
v 15.501 26.5 15.501
v 15.501 26.5 13.499
v 6.499 28.5 9.501
v 6.499 28.5 7.499
v 10.501 28.5 7.499
v 10.501 28.5 9.501
v 4.499 28.501 9.5
v 4.499 27.499 9.5
v 6.501 27.499 9.5
v 6.501 28.501 9.5
v -0.501 22.5 0.501
v -0.501 22.5 -0.501
v 17.501 22.5 -0.501
v 17.501 22.5 0.501
v 3.499 27.501 13.5
v 3.499 26.499 13.5
v 13.501 26.499 13.5
v 13.501 27.501 13.5
v 0.499 0.5 1.501
v 0.499 0.5 0.499
v 16.501 0.5 0.499
v 16.501 0.5 1.501
v 1.499 26.501 15.5
v 1.499 25.499 15.5
v 15.501 25.499 15.5
v 15.501 26.501 15.5
v 0.499 22.5 17.501
v 0.499 22.5 16.499
v 17.501 22.5 16.499
v 17.501 22.5 17.501
v 1.499 0.501 15.5
v 1.499 -0.501 15.5
v 15.501 -0.501 15.5
v 15.501 0.501 15.5
v 1.499 0.5 16.501
v 1.499 0.5 15.499
v 16.501 0.5 15.499
v 16.501 0.5 16.501
v 10.499 28.501 9.5
v 10.499 27.499 9.5
v 12.501 27.499 9.5
v 12.501 28.501 9.5
v 5.499 29.501 9.5
v 5.499 28.499 9.5
v 11.501 28.499 9.5
v 11.501 29.501 9.5
v 1.5 0.501 1.499
v 1.5 -0.501 1.499
v 1.5 -0.501 15.501
v 1.5 0.501 15.501
v 15.501 26.501 1.5
v 15.501 25.499 1.5
v 1.499 25.499 1.5
v 1.499 26.501 1.5
v 1.5 26.501 1.499
v 1.5 25.499 1.499
v 1.5 25.499 15.501
v 1.5 26.501 15.501
v 3.5 27.501 3.499
v 3.5 26.499 3.499
v 3.5 26.499 13.501
v 3.5 27.501 13.501
v 4.5 28.501 7.499
v 4.5 27.499 7.499
v 4.5 27.499 9.501
v 4.5 28.501 9.501
v 5.5 29.501 7.499
v 5.5 28.499 7.499
v 5.5 28.499 9.501
v 5.5 29.501 9.501
v 10.5 28.501 7.499
v 10.5 27.499 7.499
v 10.5 27.499 9.501
v 10.5 28.501 9.501
v 6.5 28.501 9.501
v 6.5 27.499 9.501
v 6.5 27.499 7.499
v 6.5 28.501 7.499
v 15.501 0.501 1.5
v 15.501 -0.501 1.5
v 1.499 -0.501 1.5
v 1.499 0.501 1.5
v 11.5 29.501 9.501
v 11.5 28.499 9.501
v 11.5 28.499 7.499
v 11.5 29.501 7.499
v 13.5 27.501 13.501
v 13.5 26.499 13.501
v 13.5 26.499 3.499
v 13.5 27.501 3.499
v 12.501 28.501 7.5
v 12.501 27.499 7.5
v 10.499 27.499 7.5
v 10.499 28.501 7.5
v 15.5 26.501 15.501
v 15.5 25.499 15.501
v 15.5 25.499 1.499
v 15.5 26.501 1.499
v 11.501 29.501 7.5
v 11.501 28.499 7.5
v 5.499 28.499 7.5
v 5.499 29.501 7.5
v 6.501 28.501 7.5
v 6.501 27.499 7.5
v 4.499 27.499 7.5
v 4.499 28.501 7.5
v 13.501 27.501 3.5
v 13.501 26.499 3.5
v 3.499 26.499 3.5
v 3.499 27.501 3.5
v 12.5 28.501 9.501
v 12.5 27.499 9.501
v 12.5 27.499 7.499
v 12.5 28.501 7.499
v 15.5 0.501 15.501
v 15.5 -0.501 15.501
v 15.5 -0.501 1.499
v 15.5 0.501 1.499

vn -1 0 0
vn -1 0 0
vn -1 0 0
vn -1 0 0
vn 0 0 1
vn 0 0 1
vn 0 0 1
vn 0 0 1
vn 1 0 0
vn 1 0 0
vn 1 0 0
vn 1 0 0
vn 0 0 -1
vn 0 0 -1
vn 0 0 -1
vn 0 0 -1
vn 0 -1 0
vn 0 -1 0
vn 0 -1 0
vn 0 -1 0
vn 0 1 0
vn 0 1 0
vn 0 1 0
vn 0 1 0
vn 0 -1 0
vn 0 -1 0
vn 0 -1 0
vn 0 -1 0
vn 0 -1 0
vn 0 -1 0
vn 0 -1 0
vn 0 -1 0
vn 0 -1 0
vn 0 -1 0
vn 0 -1 0
vn 0 -1 0
vn 0 1 0
vn 0 1 0
vn 0 1 0
vn 0 1 0
vn 0 -1 0
vn 0 -1 0
vn 0 -1 0
vn 0 -1 0
vn 0 1 0
vn 0 1 0
vn 0 1 0
vn 0 1 0
vn 0 1 0
vn 0 1 0
vn 0 1 0
vn 0 1 0
vn 0 1 0
vn 0 1 0
vn 0 1 0
vn 0 1 0
vn 0 1 0
vn 0 1 0
vn 0 1 0
vn 0 1 0
vn 0 1 0
vn 0 1 0
vn 0 1 0
vn 0 1 0
vn 1 0 0
vn 1 0 0
vn 1 0 0
vn 1 0 0
vn 0 0 1
vn 0 0 1
vn 0 0 1
vn 0 0 1
vn 0 0 -1
vn 0 0 -1
vn 0 0 -1
vn 0 0 -1
vn -1 0 0
vn -1 0 0
vn -1 0 0
vn -1 0 0
vn 0 1 0
vn 0 1 0
vn 0 1 0
vn 0 1 0
vn 0 1 0
vn 0 1 0
vn 0 1 0
vn 0 1 0
vn 0 1 0
vn 0 1 0
vn 0 1 0
vn 0 1 0
vn 0 1 0
vn 0 1 0
vn 0 1 0
vn 0 1 0
vn 0 1 0
vn 0 1 0
vn 0 1 0
vn 0 1 0
vn 0 1 0
vn 0 1 0
vn 0 1 0
vn 0 1 0
vn 0 1 0
vn 0 1 0
vn 0 1 0
vn 0 1 0
vn 0 1 0
vn 0 1 0
vn 0 1 0
vn 0 1 0
vn 0 1 0
vn 0 1 0
vn 0 1 0
vn 0 1 0
vn 0 -1 0
vn 0 -1 0
vn 0 -1 0
vn 0 -1 0
vn 0 0 1
vn 0 0 1
vn 0 0 1
vn 0 0 1
vn 0 -1 0
vn 0 -1 0
vn 0 -1 0
vn 0 -1 0
vn 0 0 1
vn 0 0 1
vn 0 0 1
vn 0 0 1
vn 0 -1 0
vn 0 -1 0
vn 0 -1 0
vn 0 -1 0
vn 0 0 1
vn 0 0 1
vn 0 0 1
vn 0 0 1
vn 0 -1 0
vn 0 -1 0
vn 0 -1 0
vn 0 -1 0
vn 0 0 1
vn 0 0 1
vn 0 0 1
vn 0 0 1
vn 0 -1 0
vn 0 -1 0
vn 0 -1 0
vn 0 -1 0
vn 0 0 1
vn 0 0 1
vn 0 0 1
vn 0 0 1
vn 0 0 1
vn 0 0 1
vn 0 0 1
vn 0 0 1
vn -1 0 0
vn -1 0 0
vn -1 0 0
vn -1 0 0
vn 0 0 -1
vn 0 0 -1
vn 0 0 -1
vn 0 0 -1
vn -1 0 0
vn -1 0 0
vn -1 0 0
vn -1 0 0
vn -1 0 0
vn -1 0 0
vn -1 0 0
vn -1 0 0
vn -1 0 0
vn -1 0 0
vn -1 0 0
vn -1 0 0
vn -1 0 0
vn -1 0 0
vn -1 0 0
vn -1 0 0
vn -1 0 0
vn -1 0 0
vn -1 0 0
vn -1 0 0
vn 1 0 0
vn 1 0 0
vn 1 0 0
vn 1 0 0
vn 0 0 -1
vn 0 0 -1
vn 0 0 -1
vn 0 0 -1
vn 1 0 0
vn 1 0 0
vn 1 0 0
vn 1 0 0
vn 1 0 0
vn 1 0 0
vn 1 0 0
vn 1 0 0
vn 0 0 -1
vn 0 0 -1
vn 0 0 -1
vn 0 0 -1
vn 1 0 0
vn 1 0 0
vn 1 0 0
vn 1 0 0
vn 0 0 -1
vn 0 0 -1
vn 0 0 -1
vn 0 0 -1
vn 0 0 -1
vn 0 0 -1
vn 0 0 -1
vn 0 0 -1
vn 0 0 -1
vn 0 0 -1
vn 0 0 -1
vn 0 0 -1
vn 1 0 0
vn 1 0 0
vn 1 0 0
vn 1 0 0
vn 1 0 0
vn 1 0 0
vn 1 0 0
vn 1 0 0

vt 0.0078125 0.1796875
vt 0.0078125 0.0078125
vt 0.1328125 0.0078125
vt 0.1328125 0.1796875
vt 0.1484375 0.1796875
vt 0.1484375 0.0078125
vt 0.2734375 0.0078125
vt 0.2734375 0.1796875
vt 0.4140625 0.1796875
vt 0.4140625 0.0078125
vt 0.2890625 0.0078125
vt 0.2890625 0.1796875
vt 0.5546875 0.1796875
vt 0.5546875 0.0078125
vt 0.4296875 0.0078125
vt 0.4296875 0.1796875
vt 0.5703125 0.140625
vt 0.5703125 0.0078125
vt 0.578125 0.0078125
vt 0.578125 0.140625
vt 0.59375 0.0078125
vt 0.59375 0.1328125
vt 0.609375 0.1328125
vt 0.609375 0.0078125
vt 0.625 0.1328125
vt 0.625 0.0078125
vt 0.6328125 0.0078125
vt 0.6328125 0.1328125
vt 0.6484375 0.125
vt 0.6484375 0.0078125
vt 0.65625 0.0078125
vt 0.65625 0.125
vt 0.671875 0.1171875
vt 0.671875 0.0078125
vt 0.6796875 0.0078125
vt 0.6796875 0.1171875
vt 0.6953125 0.0078125
vt 0.6953125 0.1171875
vt 0.7109375 0.1171875
vt 0.7109375 0.0078125
vt 0.7265625 0.1171875
vt 0.7265625 0.0078125
vt 0.8359375 0.0078125
vt 0.8359375 0.1171875
vt 0.8515625 0.0078125
vt 0.8515625 0.1015625
vt 0.8671875 0.1015625
vt 0.8671875 0.0078125
vt 0.8828125 0.0078125
vt 0.8828125 0.0859375
vt 0.8984375 0.0859375
vt 0.8984375 0.0078125
vt 0.9140625 0.0078125
vt 0.9140625 0.0546875
vt 0.921875 0.0546875
vt 0.921875 0.0078125
vt 0.0078125 0.1953125
vt 0.0078125 0.2265625
vt 0.078125 0.2265625
vt 0.078125 0.1953125
vt 0.09375 0.1953125
vt 0.09375 0.2265625
vt 0.171875 0.2265625
vt 0.171875 0.1953125
vt 0.328125 0.21875
vt 0.328125 0.1953125
vt 0.1875 0.1953125
vt 0.1875 0.21875
vt 0.34375 0.21875
vt 0.34375 0.1953125
vt 0.484375 0.1953125
vt 0.484375 0.21875
vt 0.640625 0.21875
vt 0.640625 0.1953125
vt 0.5 0.1953125
vt 0.5 0.21875
vt 0.65625 0.21875
vt 0.65625 0.1953125
vt 0.796875 0.1953125
vt 0.796875 0.21875
vt 0.8125 0.1953125
vt 0.8125 0.2109375
vt 0.8203125 0.2109375
vt 0.8203125 0.1953125
vt 0.8359375 0.1953125
vt 0.8359375 0.2109375
vt 0.9453125 0.2109375
vt 0.9453125 0.1953125
vt 0.0078125 0.2421875
vt 0.0078125 0.2578125
vt 0.1328125 0.2578125
vt 0.1328125 0.2421875
vt 0.1484375 0.2421875
vt 0.1484375 0.2578125
vt 0.1953125 0.2578125
vt 0.1953125 0.2421875
vt 0.2109375 0.2421875
vt 0.2109375 0.2578125
vt 0.3515625 0.2578125
vt 0.3515625 0.2421875
vt 0.3671875 0.2421875
vt 0.3671875 0.2578125
vt 0.3984375 0.2578125
vt 0.3984375 0.2421875
vt 0.4140625 0.2421875
vt 0.4140625 0.2578125
vt 0.421875 0.2578125
vt 0.421875 0.2421875
vt 0.4375 0.2421875
vt 0.4375 0.2578125
vt 0.4453125 0.2578125
vt 0.4453125 0.2421875
vt 0.4609375 0.2421875
vt 0.4609375 0.2578125
vt 0.5546875 0.2578125
vt 0.5546875 0.2421875
vt 0.5703125 0.2578125
vt 0.5703125 0.2421875
vt 0.6015625 0.2421875
vt 0.6015625 0.2578125
vt 0.6171875 0.25
vt 0.6171875 0.2421875
vt 0.6328125 0.2421875
vt 0.6328125 0.25
vt 0.6484375 0.25
vt 0.6484375 0.2421875
vt 0.7890625 0.2421875
vt 0.7890625 0.25
vt 0.8046875 0.25
vt 0.8046875 0.2421875
vt 0.8828125 0.2421875
vt 0.8828125 0.25
vt 0.0078125 0.28125
vt 0.0078125 0.2734375
vt 0.1328125 0.2734375
vt 0.1328125 0.28125
vt 0.1484375 0.28125
vt 0.1484375 0.2734375
vt 0.2578125 0.2734375
vt 0.2578125 0.28125
vt 0.2734375 0.28125
vt 0.2734375 0.2734375
vt 0.40625 0.2734375
vt 0.40625 0.28125
vt 0.421875 0.28125
vt 0.421875 0.2734375
vt 0.53125 0.2734375
vt 0.53125 0.28125
vt 0.546875 0.28125
vt 0.546875 0.2734375
vt 0.6640625 0.2734375
vt 0.6640625 0.28125
vt 0.6796875 0.28125
vt 0.6796875 0.2734375
vt 0.6953125 0.2734375
vt 0.6953125 0.28125
vt 0.7109375 0.28125
vt 0.7109375 0.2734375
vt 0.7578125 0.2734375
vt 0.7578125 0.28125
vt 0.7734375 0.28125
vt 0.7734375 0.2734375
vt 0.8828125 0.2734375
vt 0.8828125 0.28125
vt 0.1171875 0.3046875
vt 0.1171875 0.296875
vt 0.0078125 0.296875
vt 0.0078125 0.3046875
vt 0.1328125 0.3046875
vt 0.1328125 0.296875
vt 0.2421875 0.296875
vt 0.2421875 0.3046875
vt 0.2578125 0.3046875
vt 0.2578125 0.296875
vt 0.3359375 0.296875
vt 0.3359375 0.3046875
vt 0.3515625 0.3046875
vt 0.3515625 0.296875
vt 0.3671875 0.296875
vt 0.3671875 0.3046875
vt 0.3828125 0.3046875
vt 0.3828125 0.296875
vt 0.3984375 0.296875
vt 0.3984375 0.3046875
vt 0.4140625 0.3046875
vt 0.4140625 0.296875
vt 0.4296875 0.296875
vt 0.4296875 0.3046875
vt 0.4609375 0.3046875
vt 0.4609375 0.296875
vt 0.4453125 0.296875
vt 0.4453125 0.3046875
vt 0.5859375 0.3046875
vt 0.5859375 0.296875
vt 0.4765625 0.296875
vt 0.4765625 0.3046875
vt 0.6171875 0.3046875
vt 0.6171875 0.296875
vt 0.6015625 0.296875
vt 0.6015625 0.3046875
vt 0.7109375 0.3046875
vt 0.7109375 0.296875
vt 0.6328125 0.296875
vt 0.6328125 0.3046875
vt 0.7421875 0.3046875
vt 0.7421875 0.296875
vt 0.7265625 0.296875
vt 0.7265625 0.3046875
vt 0.8671875 0.3046875
vt 0.8671875 0.296875
vt 0.7578125 0.296875
vt 0.7578125 0.3046875
vt 0.9296875 0.3046875
vt 0.9296875 0.296875
vt 0.8828125 0.296875
vt 0.8828125 0.3046875
vt 0.9609375 0.3046875
vt 0.9609375 0.296875
vt 0.9453125 0.296875
vt 0.9453125 0.3046875
vt 0.0859375 0.328125
vt 0.0859375 0.3203125
vt 0.0078125 0.3203125
vt 0.0078125 0.328125
vt 0.1171875 0.328125
vt 0.1171875 0.3203125
vt 0.1015625 0.3203125
vt 0.1015625 0.328125
vt 0.2421875 0.328125
vt 0.2421875 0.3203125
vt 0.1328125 0.3203125
vt 0.1328125 0.328125

mtllib trash can.mtl
usemtl palette
f 1/1/1 2/2/2 3/3/3
f 4/4/4 1/1/1 3/3/3
f 5/5/5 6/6/6 7/7/7
f 8/8/8 5/5/5 7/7/7
f 9/9/9 10/10/10 11/11/11
f 12/12/12 9/9/9 11/11/11
f 13/13/13 14/14/14 15/15/15
f 16/16/16 13/13/13 15/15/15
f 17/17/17 18/18/18 19/19/19
f 20/20/20 17/17/17 19/19/19
f 21/21/21 22/22/22 23/23/23
f 24/24/24 21/21/21 23/23/23
f 25/25/25 26/26/26 27/27/27
f 28/28/28 25/25/25 27/27/27
f 29/29/29 30/30/30 31/31/31
f 32/32/32 29/29/29 31/31/31
f 33/33/33 34/34/34 35/35/35
f 36/36/36 33/33/33 35/35/35
f 37/37/37 38/38/38 39/39/39
f 40/40/40 37/37/37 39/39/39
f 41/41/41 42/42/42 43/43/43
f 44/44/44 41/41/41 43/43/43
f 45/45/45 46/46/46 47/47/47
f 48/48/48 45/45/45 47/47/47
f 49/49/49 50/50/50 51/51/51
f 52/52/52 49/49/49 51/51/51
f 53/53/53 54/54/54 55/55/55
f 56/56/56 53/53/53 55/55/55
f 57/57/57 58/58/58 59/59/59
f 60/60/60 57/57/57 59/59/59
f 61/61/61 62/62/62 63/63/63
f 64/64/64 61/61/61 63/63/63
f 65/65/65 66/66/66 67/67/67
f 68/68/68 65/65/65 67/67/67
f 69/69/69 70/70/70 71/71/71
f 72/72/72 69/69/69 71/71/71
f 73/73/73 74/74/74 75/75/75
f 76/76/76 73/73/73 75/75/75
f 77/77/77 78/78/78 79/79/79
f 80/80/80 77/77/77 79/79/79
f 81/81/81 82/82/82 83/83/83
f 84/84/84 81/81/81 83/83/83
f 85/85/85 86/86/86 87/87/87
f 88/88/88 85/85/85 87/87/87
f 89/89/89 90/90/90 91/91/91
f 92/92/92 89/89/89 91/91/91
f 93/93/93 94/94/94 95/95/95
f 96/96/96 93/93/93 95/95/95
f 97/97/97 98/98/98 99/99/99
f 100/100/100 97/97/97 99/99/99
f 101/101/101 102/102/102 103/103/103
f 104/104/104 101/101/101 103/103/103
f 105/105/105 106/106/106 107/107/107
f 108/108/108 105/105/105 107/107/107
f 109/109/109 110/110/110 111/111/111
f 112/112/112 109/109/109 111/111/111
f 113/113/113 114/114/114 115/115/115
f 116/116/116 113/113/113 115/115/115
f 117/117/117 118/118/118 119/119/119
f 120/120/120 117/117/117 119/119/119
f 121/121/121 122/122/122 123/123/123
f 124/124/124 121/121/121 123/123/123
f 125/125/125 126/126/126 127/127/127
f 128/128/128 125/125/125 127/127/127
f 129/129/129 130/130/130 131/131/131
f 132/132/132 129/129/129 131/131/131
f 133/133/133 134/134/134 135/135/135
f 136/136/136 133/133/133 135/135/135
f 137/137/137 138/138/138 139/139/139
f 140/140/140 137/137/137 139/139/139
f 141/141/141 142/142/142 143/143/143
f 144/144/144 141/141/141 143/143/143
f 145/145/145 146/146/146 147/147/147
f 148/148/148 145/145/145 147/147/147
f 149/149/149 150/150/150 151/151/151
f 152/152/152 149/149/149 151/151/151
f 153/153/153 154/154/154 155/155/155
f 156/156/156 153/153/153 155/155/155
f 157/157/157 158/158/158 159/159/159
f 160/160/160 157/157/157 159/159/159
f 161/161/161 162/162/162 163/163/163
f 164/164/164 161/161/161 163/163/163
f 165/165/165 166/166/166 167/167/167
f 168/168/168 165/165/165 167/167/167
f 169/169/169 170/170/170 171/171/171
f 172/172/172 169/169/169 171/171/171
f 173/173/173 174/174/174 175/175/175
f 176/176/176 173/173/173 175/175/175
f 177/177/177 178/178/178 179/179/179
f 180/180/180 177/177/177 179/179/179
f 181/181/181 182/182/182 183/183/183
f 184/184/184 181/181/181 183/183/183
f 185/185/185 186/186/186 187/187/187
f 188/188/188 185/185/185 187/187/187
f 189/189/189 190/190/190 191/191/191
f 192/192/192 189/189/189 191/191/191
f 193/193/193 194/194/194 195/195/195
f 196/196/196 193/193/193 195/195/195
f 197/197/197 198/198/198 199/199/199
f 200/200/200 197/197/197 199/199/199
f 201/201/201 202/202/202 203/203/203
f 204/204/204 201/201/201 203/203/203
f 205/205/205 206/206/206 207/207/207
f 208/208/208 205/205/205 207/207/207
f 209/209/209 210/210/210 211/211/211
f 212/212/212 209/209/209 211/211/211
f 213/213/213 214/214/214 215/215/215
f 216/216/216 213/213/213 215/215/215
f 217/217/217 218/218/218 219/219/219
f 220/220/220 217/217/217 219/219/219
f 221/221/221 222/222/222 223/223/223
f 224/224/224 221/221/221 223/223/223
f 225/225/225 226/226/226 227/227/227
f 228/228/228 225/225/225 227/227/227
f 229/229/229 230/230/230 231/231/231
f 232/232/232 229/229/229 231/231/231
